<svg xmlns="http://www.w3.org/2000/svg" viewBox="0 0 100 100" fill="none">
  <!-- Mushaf shape (open book) -->
  <path d="M50 82C50 82 14 68 10 30L10 20C10 16 14 14 18 16L50 28L82 16C86 14 90 16 90 20L90 30C86 68 50 82 50 82Z" fill="#1a5632" stroke="#d4a843" stroke-width="2"/>
  <!-- Right page lines -->
  <line x1="28" y1="30" x2="28" y2="64" stroke="#d4a843" stroke-width="1" opacity="0.6"/>
  <line x1="36" y1="28" x2="36" y2="62" stroke="#d4a843" stroke-width="1" opacity="0.6"/>
  <line x1="44" y1="26" x2="44" y2="60" stroke="#d4a843" stroke-width="1" opacity="0.6"/>
  <!-- Left page lines -->
  <line x1="56" y1="26" x2="56" y2="60" stroke="#d4a843" stroke-width="1" opacity="0.6"/>
  <line x1="64" y1="28" x2="64" y2="62" stroke="#d4a843" stroke-width="1" opacity="0.6"/>
  <line x1="72" y1="30" x2="72" y2="64" stroke="#d4a843" stroke-width="1" opacity="0.6"/>
  <!-- Star/crescent on cover -->
  <circle cx="50" cy="46" r="8" fill="#d4a843" opacity="0.9"/>
  <path d="M47 42C50 42 53 44 53 48C53 52 50 54 47 54C49 53 51 51 51 48C51 45 49 43 47 42Z" fill="#1a5632"/>
  <!-- Spine detail -->
  <line x1="50" y1="28" x2="50" y2="80" stroke="#d4a843" stroke-width="1.5"/>
  <!-- Bookmark ribbon -->
  <path d="M50 28L50 22L54 24L50 26L46 24L50 22" fill="#c0392b"/>
</svg>
